<?xml version="1.0" encoding="UTF-8"?>
<svg id="IMDb_Circle_Format_Gold_BKG_Black_Logo" xmlns="http://www.w3.org/2000/svg" version="1.1" viewBox="0 0 250 250">
  <!-- Generator: Adobe Illustrator 29.2.1, SVG Export Plug-In . SVG Version: 2.1.0 Build 116)  -->
  <defs>
    <style>
      .st0 {
        fill: #f5c518;
      }

      .st1 {
        fill: #161616;
      }
    </style>
  </defs>
  <circle id="Circle_f5c518" class="st0" cx="125.1" cy="125.4" r="125"/>
  <path id="IMDb_Logo" class="st1" d="M53.2,87.3v73.9h-19.2v-73.9h19.2ZM94.2,87.3l-4.4,34.6-2.7-18.8c-.8-6-1.6-11.3-2.3-15.8h-24.9v73.9h16.8v-48.8c0,0,7.1,48.8,7.1,48.8h12l6.7-49.9v49.9h16.8v-73.9h-25.1ZM125.8,161.3v-73.9h14.3c9.3,0,14.7.4,17.9,1.3,3.3.9,5.8,2.3,7.5,4.2,1.7,1.9,2.8,4.1,3.2,6.5.4,2.4.7,7.1.7,14.1v26c0,6.6-.4,11.1-1,13.3-.6,2.2-1.7,4-3.3,5.2-1.5,1.3-3.5,2.2-5.7,2.7-2.3.5-5.7.8-10.3.8h-23.3ZM145,100v48.5c2.8,0,4.4-.5,5.1-1.6.6-1.1,1-4.1,1-9.1v-28.6c0-3.3-.1-5.5-.3-6.4-.2-1-.7-1.6-1.5-2.1-.8-.5-2.2-.7-4.3-.7ZM194.4,87.3v24.1c1.5-1.8,3.3-3.1,5.1-3.9,1.9-.9,4.7-1.3,6.9-1.3s4.7.4,6.6,1.2c1.9.8,3.3,1.9,4.3,3.3,1,1.4,1.6,2.8,1.8,4.2.2,1.4.3,4.3.3,8.7v20.7c0,4.4-.3,7.7-.9,9.9-.6,2.2-2,4.1-4.2,5.6-2.2,1.6-4.8,2.4-7.9,2.4s-5-.5-6.9-1.4c-1.9-1-3.6-2.4-5.2-4.3l-1.2,4.7h-17.3v-73.9h18.5ZM200.9,124.4c0-3.1-.2-5.2-.6-6.1-.4-.9-2-1.4-3.2-1.4s-1.9.4-2.2,1.3c-.3.9-.5,2.9-.5,6.3v19.5c0,3.3.2,5.3.6,6.2.4.9,1.1,1.4,2.3,1.4s2.7-.5,3.1-1.4c.4-.9.5-3.2.5-6.8v-19Z"/>
</svg>